# xmcd
#
# Track frame offsets:
#	150
#	16170
#	29842
#	46719
#	64788
#	79854
#	94827
#	112954
#	130553
#	148764
#	159333
#	175316
#
# Disc length: 2615 seconds
#
# Revision: 1
# Processed by: cddbd v1.5.2PL0 Copyright (c) Steve Scherf et al.
# Submitted via: audiograbber 1.83.01
#
DISCID=950a350c
DTITLE=Thrusday Night Fishing Club - Tropical
DYEAR=1900
DGENRE=Country
TTITLE0=Fishin' With Bobby Blare
TTITLE1=Fish Hard
TTITLE2=Doctor's Orders
TTITLE3=Los Brazos Del Mar (The Arms Of The Sea)
TTITLE4=Headin' Down To Baja
TTITLE5=Small Stuff
TTITLE6=So Far So Good
TTITLE7=The Way I Am
TTITLE8=Something In The Water
TTITLE9=Too Much Beer Not Enough Bait
TTITLE10=Biggest Fish Hole In The World
TTITLE11=Bad To The Bonefish
EXTD=
EXTT0=
EXTT1=
EXTT2=
EXTT3=
EXTT4=
EXTT5=
EXTT6=
EXTT7=
EXTT8=
EXTT9=
EXTT10=
EXTT11=
PLAYORDER=
